<svg viewBox="0 0 42 42" fill="none" xmlns="http://www.w3.org/2000/svg" class="hd__nav__link__icon"><g clip-path="url(#clip0_5031_21916)"><path d="M28.34 -0.0314941H13.629C6.08465 -0.0314941 -0.03125 6.08441 -0.03125 13.6288V28.3398C-0.03125 35.8841 6.08465 42 13.629 42H28.34C35.8844 42 42.0003 35.8841 42.0003 28.3398V13.6288C42.0003 6.08441 35.8844 -0.0314941 28.34 -0.0314941Z" fill="#FDF6E6"></path> <path d="M29.2696 16.6656C29.1029 16.0113 28.7165 15.4341 28.1752 15.0305C27.634 14.627 26.9705 14.4215 26.2959 14.4484H15.8878C15.2132 14.4215 14.5497 14.627 14.0085 15.0305C13.4672 15.4341 13.0808 16.0113 12.9141 16.6656L10.2871 29.4904C9.94562 31.1559 11.3694 32.6901 13.2556 32.6901H28.9281C30.8143 32.6901 32.2381 31.1559 31.8966 29.4904L29.2696 16.6656Z" fill="#2A3761"></path> <path d="M26.5691 11.9002V17.8634C26.5664 18.1277 26.4869 18.3855 26.3405 18.6056C26.1941 18.8257 25.987 18.9986 25.7443 19.1033C25.5779 19.1725 25.399 19.2065 25.2189 19.2031C25.0393 19.2038 24.8613 19.169 24.6953 19.1006C24.5292 19.0322 24.3784 18.9316 24.2514 18.8046C24.1244 18.6776 24.0238 18.5267 23.9554 18.3607C23.887 18.1946 23.8522 18.0167 23.8528 17.8371V11.9002C23.8514 11.5526 23.781 11.2088 23.6457 10.8886C23.5104 10.5684 23.313 10.2783 23.0648 10.035C22.9242 9.89187 22.7652 9.76818 22.5919 9.66723C22.1757 9.40285 21.6927 9.26253 21.1996 9.26267C20.5029 9.26267 19.8347 9.53944 19.3421 10.0321C18.8494 10.5247 18.5726 11.1929 18.5726 11.8896V17.8634C18.5728 18.1352 18.4919 18.4008 18.3403 18.6264C18.1887 18.8519 17.9732 19.0271 17.7215 19.1296C17.555 19.1982 17.3762 19.2322 17.1961 19.2294C16.8338 19.2294 16.4864 19.0855 16.2302 18.8293C15.974 18.5731 15.8301 18.2257 15.8301 17.8634V11.9002C15.8319 11.0153 16.052 10.1446 16.4708 9.3652C16.8896 8.58576 17.4941 7.92164 18.2309 7.43167C18.9677 6.9417 19.8139 6.64101 20.6947 6.55624C21.5754 6.47147 22.4635 6.60524 23.2802 6.94569C24.2535 7.35849 25.0841 8.04812 25.6688 8.92893C26.2535 9.80975 26.5666 10.8429 26.5691 11.9002V11.9002Z" fill="#FEB843"></path> <path d="M15.8879 14.4484H15.8301V17.8634C15.8301 18.0433 15.8656 18.2213 15.9346 18.3874C16.0035 18.5535 16.1046 18.7043 16.232 18.8312C16.3594 18.9581 16.5106 19.0586 16.677 19.127C16.8433 19.1953 17.0215 19.2301 17.2014 19.2295C17.3815 19.2323 17.5602 19.1983 17.7268 19.1296C17.9765 19.0256 18.1898 18.8497 18.3394 18.6242C18.4891 18.3988 18.5684 18.134 18.5674 17.8634V14.4484H15.8879Z" fill="#FF5804"></path> <path d="M25.2197 19.2032C25.3998 19.2066 25.5787 19.1726 25.7451 19.1034C25.9878 18.9987 26.1949 18.8258 26.3413 18.6057C26.4877 18.3856 26.5672 18.1278 26.5699 17.8634V14.4694C26.479 14.464 26.3877 14.464 26.2967 14.4694H23.8379V17.8634C23.8406 18.0421 23.8785 18.2186 23.9495 18.3826C24.0204 18.5467 24.1229 18.6951 24.2513 18.8195C24.3796 18.944 24.5311 19.0419 24.6973 19.1077C24.8635 19.1735 25.041 19.206 25.2197 19.2032V19.2032Z" fill="#FF5804"></path> <path d="M23.3544 25.0666L20.5278 26.7952C20.4252 26.8613 20.3074 26.9002 20.1856 26.9079C20.0638 26.9156 19.942 26.892 19.8319 26.8394C19.7218 26.7867 19.627 26.7067 19.5566 26.607C19.4862 26.5072 19.4425 26.3912 19.4297 26.2698V22.8179C19.4425 22.6965 19.4862 22.5804 19.5566 22.4807C19.627 22.381 19.7218 22.301 19.8319 22.2483C19.942 22.1956 20.0638 22.172 20.1856 22.1798C20.3074 22.1875 20.4252 22.2263 20.5278 22.2925L23.3544 23.9948C23.4469 24.0504 23.5234 24.1289 23.5765 24.2228C23.6296 24.3168 23.6576 24.4228 23.6576 24.5307C23.6576 24.6386 23.6296 24.7447 23.5765 24.8386C23.5234 24.9325 23.4469 25.011 23.3544 25.0666Z" fill="white"></path></g> <defs><clipPath id="clip0_5031_21916"><rect width="42" height="42" fill="white"></rect></clipPath></defs></svg>