<svg id="svg" version="1.1" xmlns="http://www.w3.org/2000/svg" xmlns:xlink="http://www.w3.org/1999/xlink" width="400" height="95.26315789473685" viewBox="0, 0, 400,95.26315789473685"><g id="svgg"><path id="path0" d="M75.083 18.958 C 72.838 19.098,70.395 19.577,68.411 20.266 C 68.041 20.395,67.644 20.500,67.528 20.500 C 67.412 20.500,67.007 20.650,66.627 20.833 C 66.248 21.017,65.878 21.167,65.805 21.167 C 65.446 21.167,60.586 23.572,59.480 24.297 C 59.240 24.454,58.565 24.867,57.980 25.215 C 56.524 26.079,54.899 27.249,53.729 28.276 C 51.959 29.829,49.634 31.746,49.272 31.951 C 48.821 32.206,46.197 34.744,44.904 36.177 C 42.244 39.122,40.000 41.862,40.000 42.164 C 40.000 42.257,39.941 42.333,39.869 42.333 C 39.797 42.333,39.591 42.568,39.411 42.854 C 38.948 43.590,38.661 44.020,38.042 44.907 C 37.744 45.334,37.500 45.730,37.500 45.787 C 37.500 45.844,37.398 46.009,37.273 46.154 C 37.149 46.298,36.822 46.829,36.548 47.333 C 36.274 47.837,35.895 48.521,35.707 48.852 C 34.833 50.390,34.167 51.822,34.167 52.162 C 34.167 52.306,33.934 53.023,33.649 53.754 C 33.365 54.485,32.948 55.721,32.723 56.500 C 32.499 57.279,32.218 58.104,32.100 58.333 C 31.146 60.179,31.209 66.177,32.210 68.833 C 33.015 70.971,35.298 73.982,36.125 73.996 C 36.240 73.998,36.333 74.060,36.333 74.134 C 36.333 74.948,40.977 76.220,44.000 76.235 C 46.861 76.249,52.681 75.047,53.667 74.238 C 53.804 74.125,54.779 73.649,55.833 73.179 C 56.887 72.710,58.552 71.877,59.531 71.329 C 60.511 70.782,61.411 70.332,61.531 70.330 C 61.652 70.328,61.938 70.179,62.167 70.000 C 62.396 69.821,62.639 69.672,62.707 69.670 C 62.775 69.668,63.160 69.423,63.562 69.125 C 63.964 68.827,64.864 68.171,65.563 67.667 C 66.261 67.162,66.832 66.694,66.833 66.625 C 66.833 66.556,66.948 66.500,67.089 66.500 C 67.229 66.500,67.387 66.387,67.440 66.250 C 67.492 66.112,67.636 66.000,67.760 66.000 C 67.883 66.000,68.043 65.903,68.117 65.785 C 68.190 65.667,68.762 65.161,69.389 64.660 L 70.528 63.750 70.435 62.167 C 70.349 60.691,69.734 57.915,69.324 57.149 C 69.134 56.794,69.213 56.733,66.690 59.167 C 65.800 60.025,61.533 63.342,60.130 64.267 C 59.463 64.707,58.879 65.109,58.833 65.160 C 58.788 65.211,58.337 65.469,57.833 65.734 C 57.329 65.999,56.804 66.302,56.667 66.408 C 56.529 66.514,55.919 66.837,55.312 67.126 C 54.704 67.415,54.089 67.768,53.945 67.912 C 53.566 68.291,50.603 69.431,48.735 69.916 C 46.493 70.499,42.437 70.516,40.965 69.950 C 37.244 68.518,36.118 63.885,38.029 57.875 C 38.211 57.302,38.424 56.833,38.502 56.833 C 38.580 56.833,38.693 56.665,38.752 56.458 C 39.138 55.118,41.078 51.105,42.019 49.700 C 42.284 49.306,42.500 48.949,42.500 48.907 C 42.500 48.864,42.762 48.456,43.083 48.000 C 43.404 47.544,43.667 47.098,43.667 47.010 C 43.667 46.922,43.760 46.790,43.875 46.717 C 43.990 46.643,44.344 46.208,44.662 45.750 C 45.390 44.701,45.516 44.541,45.875 44.201 C 46.035 44.050,46.167 43.836,46.167 43.727 C 46.167 43.617,46.235 43.503,46.319 43.472 C 46.403 43.442,46.873 42.925,47.364 42.325 C 48.705 40.684,49.358 40.006,53.628 35.825 C 55.228 34.259,58.065 32.000,58.433 32.000 C 58.562 32.000,58.667 31.925,58.667 31.833 C 58.667 31.742,58.738 31.667,58.826 31.667 C 58.966 31.667,60.614 30.595,61.099 30.188 C 61.199 30.104,61.537 29.905,61.849 29.744 C 62.161 29.584,62.454 29.405,62.500 29.346 C 62.626 29.182,67.281 26.851,67.976 26.603 C 79.880 22.357,85.010 25.943,82.136 36.500 C 81.484 38.895,79.202 44.090,78.396 45.013 C 78.270 45.158,78.167 45.320,78.167 45.373 C 78.167 45.483,76.776 47.648,76.510 47.951 C 76.413 48.062,76.333 48.200,76.333 48.258 C 76.333 48.370,76.266 48.461,74.577 50.640 C 73.321 52.261,73.374 52.005,73.977 53.537 C 74.540 54.970,75.266 57.195,75.418 57.958 C 75.587 58.803,75.991 58.429,78.788 54.842 C 79.542 53.875,80.254 52.974,80.371 52.839 C 80.488 52.705,80.658 52.461,80.750 52.297 C 80.842 52.132,81.285 51.454,81.735 50.790 C 83.726 47.851,85.572 44.389,86.555 41.750 C 88.687 36.022,89.237 31.818,88.352 28.012 C 87.964 26.347,86.981 24.189,86.212 23.312 C 85.325 22.303,84.090 21.167,83.879 21.167 C 83.762 21.167,83.667 21.104,83.667 21.028 C 83.667 20.856,82.231 20.139,81.000 19.694 C 79.612 19.193,76.842 18.849,75.083 18.958 " stroke="none" fill="#fb7e04" fill-rule="evenodd"></path><path id="path1" d="M28.750 19.205 C 25.594 19.699,22.174 21.673,22.174 23.000 C 22.174 25.382,25.442 27.348,27.167 26.003 C 29.094 24.500,33.800 24.431,37.364 25.855 C 37.794 26.026,38.296 26.167,38.479 26.167 C 38.663 26.167,38.855 26.233,38.905 26.315 C 38.956 26.396,39.198 26.514,39.444 26.575 C 39.961 26.705,43.929 28.654,44.917 29.263 C 45.283 29.489,45.696 29.724,45.833 29.786 C 45.971 29.848,46.791 30.382,47.655 30.971 C 48.688 31.676,49.295 31.993,49.425 31.897 C 49.534 31.816,50.291 31.188,51.107 30.500 C 51.923 29.813,52.886 29.016,53.246 28.729 L 53.901 28.209 53.409 27.776 C 53.138 27.538,52.823 27.341,52.708 27.339 C 52.594 27.336,52.500 27.256,52.500 27.161 C 52.500 27.067,52.369 26.941,52.208 26.881 C 52.048 26.822,51.542 26.500,51.083 26.166 C 50.625 25.833,49.987 25.416,49.667 25.240 C 49.346 25.064,48.957 24.819,48.803 24.695 C 48.421 24.387,47.887 24.101,45.215 22.777 C 43.951 22.151,42.790 21.572,42.636 21.491 C 41.900 21.106,39.326 20.274,37.083 19.695 C 34.553 19.043,31.088 18.839,28.750 19.205 M56.725 33.144 C 55.914 33.773,54.918 34.585,54.513 34.947 L 53.775 35.606 56.515 38.345 C 59.207 41.036,60.633 42.619,61.690 44.091 C 61.983 44.499,62.285 44.833,62.362 44.833 C 62.438 44.833,62.500 44.946,62.500 45.083 C 62.500 45.221,62.557 45.333,62.627 45.333 C 62.697 45.333,62.940 45.633,63.167 46.000 C 63.393 46.367,63.636 46.667,63.706 46.667 C 63.776 46.667,63.833 46.734,63.833 46.816 C 63.833 46.898,64.246 47.574,64.750 48.319 C 65.254 49.063,65.667 49.722,65.667 49.781 C 65.667 49.841,65.770 50.009,65.896 50.154 C 66.022 50.298,66.573 51.317,67.120 52.417 C 68.510 55.215,68.833 55.922,68.833 56.165 C 68.833 56.282,68.981 56.617,69.162 56.909 C 70.932 59.773,70.788 66.947,68.930 68.489 C 67.649 69.552,70.238 73.000,72.315 73.000 C 73.344 73.000,75.173 70.167,75.847 67.528 C 76.252 65.948,76.295 61.126,75.918 59.667 C 75.410 57.700,74.983 56.302,74.409 54.725 C 74.080 53.822,73.664 52.653,73.485 52.126 C 72.915 50.450,69.930 45.052,69.468 44.861 C 69.394 44.831,69.333 44.739,69.333 44.658 C 69.333 44.536,68.251 42.850,67.788 42.250 C 65.457 39.233,63.232 36.596,62.340 35.794 C 62.062 35.544,61.833 35.304,61.833 35.262 C 61.833 35.185,60.898 34.253,59.352 32.792 C 58.309 31.806,58.479 31.783,56.725 33.144 " stroke="none" fill="#f4abcb" fill-rule="evenodd"></path><path id="path2" d="M118.250 32.738 C 114.725 33.914,113.238 35.949,113.051 39.851 L 112.949 42.000 110.224 42.000 L 107.500 42.000 107.500 44.667 L 107.500 47.333 110.250 47.333 L 113.000 47.333 113.000 56.333 L 113.000 65.333 116.333 65.333 L 119.667 65.333 119.667 56.333 L 119.667 47.333 123.250 47.333 L 126.833 47.333 126.833 44.667 L 126.833 42.000 123.250 42.000 L 119.667 42.000 119.667 40.911 C 119.667 38.126,121.518 37.097,125.034 37.929 C 125.415 38.019,125.496 37.975,125.560 37.643 C 125.732 36.753,126.207 34.543,126.349 33.981 C 126.567 33.110,126.548 33.047,126.042 32.951 C 125.790 32.904,125.171 32.746,124.667 32.601 C 123.175 32.172,119.725 32.245,118.250 32.738 M129.667 48.833 L 129.667 65.333 133.000 65.333 L 136.333 65.333 136.333 48.833 L 136.333 32.333 133.000 32.333 L 129.667 32.333 129.667 48.833 M175.109 36.625 C 175.050 37.244,175.002 38.706,175.001 39.875 L 175.000 42.000 172.417 42.000 L 169.833 42.000 169.833 44.667 L 169.833 47.333 172.322 47.333 L 174.810 47.333 174.871 54.208 L 174.931 61.083 175.417 62.000 C 177.109 65.190,180.324 66.167,186.500 65.369 L 187.417 65.250 187.463 62.726 L 187.508 60.202 185.443 60.291 C 181.468 60.462,181.333 60.212,181.333 52.677 L 181.333 47.333 184.500 47.333 L 187.667 47.333 187.667 44.667 L 187.667 42.000 184.500 42.000 L 181.333 42.000 181.333 38.750 L 181.333 35.500 178.274 35.500 L 175.215 35.500 175.109 36.625 M195.106 36.273 C 195.048 36.699,195.000 38.042,195.000 39.260 C 195.000 42.263,195.258 42.000,192.316 42.000 L 189.833 42.000 189.833 44.667 L 189.833 47.333 192.250 47.333 L 194.667 47.333 194.667 52.993 C 194.667 59.451,194.796 60.780,195.564 62.230 C 197.090 65.108,200.405 66.146,205.833 65.443 L 207.417 65.238 207.463 62.720 L 207.508 60.202 205.459 60.290 C 201.424 60.464,201.342 60.315,201.337 52.792 L 201.333 47.333 204.500 47.333 L 207.667 47.333 207.667 44.667 L 207.667 42.000 204.500 42.000 L 201.333 42.000 201.333 38.750 L 201.333 35.500 198.273 35.500 L 195.212 35.500 195.106 36.273 M220.167 41.656 C 218.067 41.913,215.838 42.715,214.179 43.808 C 213.160 44.480,211.333 46.195,211.333 46.480 C 211.333 46.583,211.269 46.667,211.191 46.667 C 211.052 46.667,210.047 48.574,209.653 49.583 C 208.599 52.284,208.965 57.321,210.363 59.359 C 210.530 59.602,210.667 59.878,210.667 59.972 C 210.667 60.134,213.164 62.726,213.673 63.092 C 213.807 63.188,214.254 63.441,214.667 63.655 C 215.079 63.869,215.619 64.148,215.866 64.276 C 220.223 66.528,229.834 65.817,232.633 63.035 C 232.791 62.878,233.107 62.600,233.335 62.416 C 234.286 61.650,235.392 59.970,235.811 58.655 C 236.198 57.437,236.362 57.500,232.778 57.500 L 229.556 57.500 229.153 58.119 C 227.220 61.086,220.019 61.174,217.111 58.266 C 216.560 57.715,215.667 56.044,215.667 55.563 C 215.667 55.370,217.289 55.333,225.738 55.333 L 235.809 55.333 235.926 54.396 C 236.170 52.451,235.125 47.333,234.485 47.333 C 234.402 47.333,234.333 47.222,234.333 47.085 C 234.333 46.750,233.967 46.297,232.580 44.914 C 229.956 42.298,225.172 41.042,220.167 41.656 M309.333 41.652 C 304.423 42.238,300.000 46.010,300.000 49.612 L 300.000 50.000 303.320 50.000 L 306.641 50.000 306.837 49.407 C 308.180 45.336,317.500 45.956,317.500 50.116 L 317.500 50.787 316.625 50.892 C 316.144 50.950,315.337 50.996,314.833 50.995 C 310.455 50.985,304.293 51.890,302.269 52.842 C 297.847 54.920,297.647 61.731,301.935 64.193 C 306.384 66.748,316.222 65.754,318.217 62.548 C 318.425 62.213,318.619 62.293,318.809 62.792 C 318.986 63.255,319.556 64.000,319.733 64.000 C 319.786 64.000,319.972 64.122,320.146 64.271 C 320.849 64.873,322.198 65.191,324.458 65.287 L 326.667 65.381 326.667 62.857 L 326.667 60.333 326.122 60.333 C 324.306 60.333,324.205 60.018,324.177 54.250 C 324.153 49.170,324.037 48.206,323.256 46.610 C 321.429 42.876,315.819 40.878,309.333 41.652 M365.167 41.656 C 361.670 42.085,357.485 44.367,356.251 46.517 C 356.159 46.678,355.870 47.171,355.610 47.613 C 353.614 50.998,353.496 56.638,355.363 59.359 C 355.530 59.602,355.667 59.878,355.667 59.972 C 355.667 60.134,358.164 62.726,358.673 63.092 C 358.807 63.188,359.254 63.441,359.667 63.655 C 360.079 63.869,360.619 64.148,360.866 64.276 C 363.049 65.404,367.641 65.950,371.083 65.491 C 376.108 64.820,379.760 62.193,380.859 58.458 L 381.140 57.500 377.848 57.500 L 374.556 57.500 374.153 58.119 C 373.182 59.609,371.265 60.333,368.289 60.333 C 364.055 60.333,361.437 58.734,360.717 55.708 L 360.628 55.333 370.720 55.333 L 380.813 55.333 380.933 54.542 C 381.211 52.708,380.132 47.333,379.485 47.333 C 379.402 47.333,379.333 47.222,379.333 47.085 C 379.333 46.593,377.548 44.659,376.333 43.836 C 373.579 41.971,369.343 41.144,365.167 41.656 M141.200 50.125 C 141.267 59.012,141.201 58.375,142.306 60.667 C 142.784 61.659,144.602 63.621,145.417 64.024 C 145.692 64.161,146.067 64.352,146.250 64.449 C 149.364 66.102,156.745 65.963,158.189 64.223 C 158.291 64.100,158.453 64.000,158.549 64.000 C 158.645 64.000,159.153 63.627,159.678 63.171 L 160.631 62.341 161.001 63.837 L 161.371 65.333 164.352 65.333 L 167.333 65.333 167.333 53.667 L 167.333 42.000 164.007 42.000 L 160.681 42.000 160.632 48.708 C 160.583 55.404,160.582 55.418,160.182 56.250 C 159.720 57.211,158.871 58.388,158.485 58.603 C 154.629 60.749,150.285 60.112,148.555 57.146 C 147.784 55.825,147.667 54.626,147.667 48.092 L 147.667 42.000 144.403 42.000 L 141.139 42.000 141.200 50.125 M239.667 53.663 L 239.667 65.333 243.000 65.333 L 246.333 65.333 246.333 59.708 C 246.333 53.557,246.437 52.719,247.381 51.223 C 247.752 50.636,248.029 50.360,249.178 49.432 C 249.322 49.316,249.585 49.176,249.762 49.122 C 249.939 49.067,250.421 48.898,250.833 48.746 C 251.405 48.535,252.148 48.471,253.958 48.476 L 256.333 48.482 256.333 45.241 L 256.333 42.000 254.708 42.003 C 252.899 42.006,250.589 42.359,249.840 42.747 C 249.570 42.886,249.234 43.000,249.092 43.000 C 248.950 43.000,248.833 43.070,248.833 43.155 C 248.833 43.241,248.667 43.364,248.464 43.428 C 248.260 43.493,247.698 43.958,247.214 44.462 C 246.426 45.282,246.333 45.336,246.326 44.981 C 246.322 44.762,246.184 44.021,246.018 43.333 L 245.717 42.083 242.692 42.038 L 239.667 41.992 239.667 53.663 M257.835 42.125 C 257.836 42.262,258.363 43.955,258.652 44.750 C 259.063 45.882,259.715 47.798,259.928 48.500 C 260.053 48.913,260.387 49.887,260.670 50.667 C 260.953 51.446,261.255 52.346,261.340 52.667 C 261.426 52.987,261.804 54.112,262.180 55.167 C 262.557 56.221,262.969 57.421,263.097 57.833 C 263.224 58.246,263.524 59.146,263.764 59.833 C 264.004 60.521,264.261 61.308,264.335 61.583 C 264.409 61.858,264.724 62.796,265.036 63.667 L 265.604 65.250 269.136 65.295 L 272.669 65.340 272.905 64.795 C 273.034 64.495,273.302 63.800,273.500 63.250 C 273.698 62.700,273.966 62.004,274.097 61.703 C 274.227 61.402,274.333 61.082,274.333 60.993 C 274.333 60.903,274.472 60.512,274.642 60.123 C 274.933 59.455,275.197 58.770,276.021 56.542 C 276.647 54.848,276.799 54.436,277.171 53.417 C 277.372 52.867,277.678 52.096,277.852 51.704 C 278.025 51.312,278.167 50.866,278.167 50.712 C 278.167 50.155,278.522 50.791,279.083 52.352 C 279.393 53.213,279.843 54.442,280.084 55.083 C 280.325 55.725,280.638 56.587,280.779 57.000 C 280.921 57.413,281.093 57.825,281.162 57.917 C 281.232 58.008,281.329 58.271,281.378 58.500 C 281.427 58.729,281.667 59.442,281.912 60.083 C 282.156 60.725,282.471 61.587,282.611 62.000 C 282.751 62.413,282.934 62.821,283.016 62.908 C 283.099 62.995,283.167 63.188,283.167 63.335 C 283.167 63.483,283.317 63.915,283.500 64.294 C 283.683 64.673,283.833 65.064,283.833 65.162 C 283.833 65.284,284.966 65.326,287.441 65.295 L 291.049 65.250 291.367 64.333 C 291.542 63.829,291.748 63.192,291.825 62.917 C 291.967 62.410,292.348 61.298,292.797 60.083 C 292.932 59.717,293.104 59.192,293.180 58.917 C 293.255 58.642,293.661 57.442,294.082 56.250 C 294.503 55.058,294.911 53.858,294.989 53.583 C 295.067 53.308,295.263 52.708,295.424 52.250 C 295.585 51.792,295.844 51.042,296.000 50.583 C 296.155 50.125,296.376 49.487,296.489 49.167 C 296.603 48.846,296.758 48.358,296.834 48.083 C 296.910 47.808,297.361 46.496,297.836 45.167 C 298.311 43.837,298.738 42.581,298.786 42.375 L 298.872 42.000 295.526 42.000 L 292.180 42.000 292.001 42.708 C 291.902 43.098,291.722 43.717,291.601 44.083 C 291.479 44.450,291.174 45.425,290.923 46.250 C 290.672 47.075,290.372 48.012,290.257 48.333 C 290.142 48.654,289.876 49.479,289.666 50.167 C 288.943 52.539,288.822 52.924,288.180 54.917 C 287.825 56.017,287.486 57.134,287.425 57.399 C 287.274 58.060,287.118 57.837,286.501 56.083 C 285.873 54.295,285.472 53.209,285.027 52.083 C 284.846 51.625,284.604 50.987,284.491 50.667 C 284.377 50.346,284.224 49.933,284.151 49.750 C 283.953 49.254,283.188 47.212,282.808 46.167 C 282.625 45.663,282.331 44.929,282.154 44.537 C 281.978 44.145,281.833 43.714,281.833 43.579 C 281.833 43.371,281.316 43.333,278.421 43.333 L 275.009 43.333 274.773 43.792 C 274.643 44.044,274.458 44.512,274.362 44.833 C 274.118 45.646,273.688 46.853,273.500 47.250 C 273.413 47.433,273.236 47.883,273.106 48.250 C 272.640 49.560,272.442 50.091,272.232 50.588 C 272.115 50.866,271.798 51.728,271.528 52.505 C 271.257 53.281,270.833 54.442,270.585 55.083 C 270.338 55.725,270.068 56.478,269.986 56.758 C 269.777 57.467,269.346 58.039,269.339 57.616 C 269.334 57.341,268.543 54.789,267.830 52.750 C 267.670 52.292,267.369 51.354,267.162 50.667 C 266.955 49.979,266.692 49.154,266.578 48.833 C 266.464 48.512,266.203 47.688,265.998 47.000 C 265.793 46.313,265.493 45.413,265.331 45.000 C 265.169 44.587,264.981 43.988,264.913 43.667 C 264.845 43.347,264.672 42.841,264.530 42.542 L 264.272 42.000 261.052 42.000 C 259.282 42.000,257.834 42.056,257.835 42.125 M325.167 42.087 C 325.167 42.134,325.474 42.828,325.850 43.628 C 326.225 44.429,326.755 45.571,327.028 46.167 C 327.300 46.762,327.807 47.850,328.156 48.583 C 328.504 49.317,329.068 50.517,329.409 51.250 C 329.750 51.983,330.313 53.183,330.659 53.917 C 331.006 54.650,331.441 55.587,331.627 56.000 C 332.094 57.036,333.171 59.363,333.323 59.667 C 333.392 59.804,333.526 60.067,333.621 60.250 C 333.716 60.433,333.945 60.921,334.130 61.333 C 334.594 62.370,335.670 64.697,335.825 65.000 C 335.933 65.211,336.551 65.250,339.827 65.250 L 343.701 65.250 344.012 64.667 C 344.328 64.071,345.598 61.381,346.411 59.583 C 346.660 59.033,347.075 58.133,347.334 57.583 C 347.594 57.033,348.149 55.854,348.570 54.963 C 348.990 54.071,349.335 53.246,349.337 53.129 C 349.339 53.012,349.487 52.729,349.667 52.500 C 349.846 52.271,349.994 52.032,349.996 51.968 C 349.999 51.870,350.442 50.883,351.587 48.417 C 351.715 48.142,352.190 47.129,352.642 46.167 C 354.022 43.234,354.500 42.185,354.500 42.090 C 354.500 42.041,352.900 42.000,350.945 42.000 C 346.910 42.000,347.414 41.814,346.666 43.583 C 346.473 44.042,346.161 44.754,345.974 45.167 C 345.787 45.579,345.501 46.217,345.340 46.583 C 345.178 46.950,344.893 47.587,344.706 48.000 C 344.520 48.413,344.250 49.012,344.107 49.333 C 343.963 49.654,343.591 50.479,343.279 51.167 C 342.967 51.854,342.506 52.904,342.253 53.500 C 341.072 56.287,340.015 58.500,339.865 58.500 C 339.789 58.500,339.475 57.919,339.168 57.208 C 338.649 56.009,338.285 55.192,337.220 52.833 C 336.992 52.329,336.742 51.767,336.664 51.583 C 336.586 51.400,336.247 50.655,335.911 49.928 C 335.575 49.201,335.002 47.926,334.637 47.095 C 334.036 45.725,333.624 44.822,332.635 42.708 L 332.304 42.000 328.735 42.000 C 326.772 42.000,325.167 42.039,325.167 42.087 M225.511 47.142 C 227.214 47.636,228.359 48.474,228.994 49.693 C 229.631 50.914,230.085 50.833,222.583 50.833 C 218.871 50.833,215.833 50.810,215.833 50.781 C 215.833 50.504,216.623 49.222,217.066 48.778 C 218.044 47.800,219.014 47.367,221.583 46.762 C 222.217 46.613,224.421 46.826,225.511 47.142 M370.511 47.142 C 372.214 47.636,373.359 48.474,373.994 49.693 C 374.631 50.914,375.085 50.833,367.583 50.833 C 363.871 50.833,360.833 50.795,360.833 50.748 C 360.833 50.630,361.162 50.039,361.642 49.294 C 363.015 47.159,367.128 46.161,370.511 47.142 M317.500 56.044 C 317.500 59.016,312.965 61.192,308.238 60.489 C 304.269 59.898,304.949 56.040,309.031 55.989 C 309.518 55.983,311.229 55.843,312.833 55.678 C 314.438 55.514,316.144 55.369,316.625 55.356 L 317.500 55.333 317.500 56.044 " stroke="none" fill="#2c3464" fill-rule="evenodd"></path><path id="path3" d="M21.489 23.282 C 18.354 27.506,18.165 34.789,21.021 41.296 C 21.193 41.688,21.333 42.091,21.333 42.190 C 21.333 42.697,24.006 47.726,25.636 50.286 C 27.373 53.016,31.825 58.603,32.044 58.329 C 32.079 58.286,32.316 57.538,32.571 56.667 C 32.826 55.796,33.290 54.429,33.601 53.629 C 33.912 52.828,34.166 52.116,34.166 52.045 C 34.165 51.938,33.048 50.466,32.076 49.290 C 31.943 49.128,31.833 48.960,31.833 48.915 C 31.833 48.871,31.465 48.318,31.014 47.687 C 30.564 47.056,30.073 46.324,29.924 46.061 C 29.775 45.798,29.394 45.133,29.078 44.583 C 28.380 43.372,26.974 40.501,26.627 39.583 C 26.489 39.217,26.216 38.503,26.021 37.997 C 25.826 37.491,25.667 36.959,25.667 36.815 C 25.667 36.670,25.509 36.109,25.316 35.568 C 24.553 33.427,24.876 28.191,25.825 27.333 C 26.511 26.712,26.489 26.583,25.696 26.581 C 24.233 26.577,22.431 24.853,22.193 23.230 L 22.083 22.482 21.489 23.282 M38.321 57.270 C 37.902 58.347,37.325 60.967,37.227 62.239 L 37.123 63.594 37.687 64.035 C 37.996 64.277,38.550 64.749,38.917 65.084 C 39.283 65.418,40.483 66.364,41.583 67.185 C 42.683 68.006,43.674 68.750,43.785 68.839 C 43.895 68.927,44.024 69.000,44.071 69.000 C 44.118 69.000,44.612 69.313,45.170 69.696 L 46.183 70.391 47.300 70.175 C 49.659 69.719,54.013 68.113,53.710 67.810 C 53.634 67.734,53.012 67.384,52.328 67.032 C 49.394 65.522,45.263 62.810,43.500 61.237 C 43.271 61.032,42.558 60.420,41.917 59.876 C 41.275 59.332,40.406 58.556,39.986 58.152 C 38.453 56.678,38.535 56.721,38.321 57.270 M68.250 69.103 C 67.162 69.950,66.150 70.219,63.667 70.319 L 61.250 70.417 60.083 71.105 C 58.695 71.925,56.291 73.128,54.958 73.671 C 53.812 74.138,53.788 74.217,54.708 74.491 C 55.098 74.607,55.679 74.804,56.000 74.927 C 61.495 77.043,69.019 76.363,72.242 73.459 L 72.750 73.002 72.202 73.001 C 70.584 72.998,68.125 70.337,68.600 69.101 C 68.726 68.772,68.675 68.773,68.250 69.103 " stroke="none" fill="#049c44" fill-rule="evenodd"></path><path id="path4" d="M37.039 62.833 C 37.039 63.154,37.073 63.285,37.115 63.125 C 37.157 62.965,37.157 62.702,37.115 62.542 C 37.073 62.381,37.039 62.512,37.039 62.833 " stroke="none" fill="#848d24" fill-rule="evenodd"></path></g></svg>