<svg width="42" height="42" viewBox="0 0 42 42" fill="none" xmlns="http://www.w3.org/2000/svg" class="hd__nav__link__icon"><g clip-path="url(#clip0_5031_21974)"><path d="M28.3557 -0.0157471H13.6446C6.10028 -0.0157471 -0.015625 6.10015 -0.015625 13.6445V28.3555C-0.015625 35.8999 6.10028 42.0158 13.6446 42.0158H28.3557C35.9 42.0158 42.0159 35.8999 42.0159 28.3555V13.6445C42.0159 6.10015 35.9 -0.0157471 28.3557 -0.0157471Z" fill="#F9EEF3"></path> <path d="M26.3803 11.9633H15.9092C13.733 11.9633 11.9688 13.7275 11.9688 15.9037V29.5745C11.9688 31.7507 13.733 33.5149 15.9092 33.5149H26.3803C28.5566 33.5149 30.3208 31.7507 30.3208 29.5745V15.9037C30.3208 13.7275 28.5566 11.9633 26.3803 11.9633Z" fill="#2A3761"></path> <path d="M28.3454 8.47986H13.9444C12.0583 8.47986 10.5293 10.0077 10.5293 11.8923C10.5293 13.7769 12.0583 15.3047 13.9444 15.3047H28.3454C30.2315 15.3047 31.7605 13.7769 31.7605 11.8923C31.7605 10.0077 30.2315 8.47986 28.3454 8.47986Z" fill="#F2AEC9"></path> <path d="M12.0273 14.7636C12.5437 15.1123 13.1539 15.2956 13.7769 15.289H28.5142C29.1387 15.2946 29.7504 15.1115 30.269 14.7636C30.1526 13.9949 29.7681 13.2922 29.1835 12.7797C28.5989 12.2673 27.8519 11.9781 27.0746 11.9633H15.2375C14.4575 11.9744 13.7067 12.2619 13.1189 12.7747C12.531 13.2875 12.1442 13.9923 12.0273 14.7636V14.7636Z" fill="#FF5804"></path> <path d="M25.129 20.7688H16.6018C16.0041 20.7688 15.5195 21.2534 15.5195 21.8511C15.5195 22.4489 16.0041 22.9334 16.6018 22.9334H25.129C25.7267 22.9334 26.2113 22.4489 26.2113 21.8511C26.2113 21.2534 25.7267 20.7688 25.129 20.7688Z" fill="white"></path> <path d="M20.9994 25.324H16.6018C16.0041 25.324 15.5195 25.8085 15.5195 26.4063C15.5195 27.004 16.0041 27.4886 16.6018 27.4886H20.9994C21.5971 27.4886 22.0817 27.004 22.0817 26.4063C22.0817 25.8085 21.5971 25.324 20.9994 25.324Z" fill="white"></path></g> <defs><clipPath id="clip0_5031_21974"><rect width="42" height="42" fill="white"></rect></clipPath></defs></svg>