<svg width="42" height="42" viewBox="0 0 42 42" fill="none" xmlns="http://www.w3.org/2000/svg" class="hd__nav__link__icon"><g clip-path="url(#clip0_5031_21959)"><path d="M28.3557 -0.0157471H13.6446C6.10028 -0.0157471 -0.015625 6.10015 -0.015625 13.6445V28.3555C-0.015625 35.8999 6.10028 42.0158 13.6446 42.0158H28.3557C35.9 42.0158 42.0159 35.8999 42.0159 28.3555V13.6445C42.0159 6.10015 35.9 -0.0157471 28.3557 -0.0157471Z" fill="#F9EEF3"></path> <path d="M21.2162 19.4028C24.3268 19.4028 26.8484 16.7541 26.8484 13.4869C26.8484 10.2196 24.3268 7.57092 21.2162 7.57092C18.1056 7.57092 15.584 10.2196 15.584 13.4869C15.584 16.7541 18.1056 19.4028 21.2162 19.4028Z" fill="#F2AEC9"></path> <path d="M26.9958 14.1699H15.001C12.4505 14.1699 10.3828 16.2376 10.3828 18.7881V25.9387C10.3828 28.4893 12.4505 30.557 15.001 30.557H26.9958C29.5463 30.557 31.614 28.4893 31.614 25.9387V18.7881C31.614 16.2376 29.5463 14.1699 26.9958 14.1699Z" fill="#2A3761"></path> <path d="M15.625 14.1857C15.744 15.597 16.3808 16.9144 17.4128 17.8844C18.4449 18.8544 19.7992 19.4083 21.2152 19.4396C22.6293 19.4057 23.9811 18.8507 25.011 17.8809C26.0408 16.9112 26.6761 15.5952 26.7949 14.1857H15.625Z" fill="#FF5804"></path> <path d="M27.7137 23.732C28.4305 23.732 29.0115 23.1205 29.0115 22.366C29.0115 21.6116 28.4305 21 27.7137 21C26.997 21 26.416 21.6116 26.416 22.366C26.416 23.1205 26.997 23.732 27.7137 23.732Z" fill="white"></path></g> <defs><clipPath id="clip0_5031_21959"><rect width="42" height="42" fill="white"></rect></clipPath></defs></svg>