<svg width="42" height="42" viewBox="0 0 42 42" fill="none" xmlns="http://www.w3.org/2000/svg" class="hd__nav__link__icon"><g clip-path="url(#clip0_4995_8735)"><path d="M28.3557 -0.0314941H13.6446C6.10028 -0.0314941 -0.015625 6.08441 -0.015625 13.6288V28.3398C-0.015625 35.8841 6.10028 42 13.6446 42H28.3557C35.9 42 42.0159 35.8841 42.0159 28.3398V13.6288C42.0159 6.08441 35.9 -0.0314941 28.3557 -0.0314941Z" fill="#FDF6E6"></path> <path d="M16.8813 33.4992L16.6869 33.5412C16.4247 33.5943 16.1546 33.5944 15.8924 33.5413C15.6302 33.4883 15.3814 33.3832 15.1605 33.2324C14.9396 33.0815 14.7512 32.8879 14.6064 32.663C14.4616 32.4381 14.3633 32.1865 14.3174 31.923L10.3822 12.3573C10.266 11.8243 10.3617 11.267 10.649 10.8033C10.9363 10.3395 11.3926 10.0056 11.9216 9.8722L12.116 9.82492C12.3781 9.77254 12.648 9.77305 12.9099 9.82641C13.1718 9.87976 13.4204 9.98489 13.6411 10.1356C13.8618 10.2864 14.0502 10.4797 14.1952 10.7042C14.3402 10.9287 14.4389 11.1799 14.4855 11.4431L18.4207 30.9983C18.5414 31.5336 18.4479 32.0949 18.1603 32.5622C17.8726 33.0296 17.4136 33.3658 16.8813 33.4992Z" fill="#2A3761"></path> <path d="M30.2623 21.3993L30.0049 21.4571L19.8385 23.7111C19.6502 23.7498 19.4561 23.7503 19.2676 23.7125C19.0792 23.6747 18.9002 23.5994 18.7414 23.4911C18.5826 23.3828 18.4472 23.2436 18.3433 23.082C18.2393 22.9203 18.1689 22.7394 18.1362 22.55L18.0942 22.3503C18.0665 22.1927 18.0076 22.0422 17.9208 21.9078C17.834 21.7734 17.7212 21.6577 17.5889 21.5676C17.4567 21.4775 17.3078 21.4148 17.1509 21.3832C16.994 21.3516 16.8324 21.3517 16.6756 21.3836L15.7036 21.5937C15.4611 21.6438 15.2109 21.6445 14.9681 21.5958C14.7253 21.5471 14.4948 21.4499 14.2903 21.3102C14.0858 21.1705 13.9116 20.991 13.778 20.7824C13.6444 20.5739 13.5542 20.3405 13.5128 20.0964L12.3674 14.4011L12.0837 13.1349C11.9995 12.748 12.0692 12.3435 12.2781 12.0071C12.487 11.6707 12.8186 11.4289 13.2028 11.3328L14.0592 11.1384L21.1677 9.56222C21.3404 9.52483 21.5189 9.52251 21.6925 9.55543C21.8661 9.58834 22.0313 9.65581 22.1784 9.75383C22.3254 9.85185 22.4512 9.97841 22.5484 10.126C22.6455 10.2736 22.712 10.4392 22.7439 10.613L22.8017 10.8967C22.8294 11.0602 22.8897 11.2164 22.979 11.3561C23.0683 11.4957 23.1848 11.616 23.3216 11.7096C23.4584 11.8033 23.6127 11.8684 23.7752 11.9012C23.9377 11.9339 24.1052 11.9336 24.2676 11.9002L28.0767 11.0333C28.3043 10.9878 28.5387 10.9884 28.7661 11.0349C28.9935 11.0814 29.2093 11.173 29.4007 11.3042C29.5922 11.4354 29.7554 11.6037 29.8808 11.799C30.0062 11.9943 30.0913 12.2127 30.131 12.4414L31.3236 18.3888L31.5233 19.3871C31.6125 19.8203 31.5313 20.2713 31.2964 20.6461C31.0615 21.021 30.6911 21.2908 30.2623 21.3993V21.3993Z" fill="#FF9F00"></path> <path d="M13.2252 11.3118C12.8327 11.4031 12.4924 11.6462 12.2787 11.9879C12.065 12.3296 11.9954 12.742 12.0851 13.1349L12.3478 14.4221L13.4932 20.1174C13.5346 20.3615 13.6248 20.5948 13.7584 20.8034C13.892 21.0119 14.0662 21.1914 14.2707 21.3312C14.4752 21.4709 14.7057 21.5681 14.9485 21.6168C15.1913 21.6655 15.4415 21.6648 15.684 21.6147L16.4721 21.4413L14.5072 11.5587C14.4704 11.3905 14.4158 11.2267 14.3443 11.0701L14.0816 11.1279L13.2252 11.3118Z" fill="#FF5804"></path></g> <defs><clipPath id="clip0_4995_8735"><rect width="42" height="42" fill="white"></rect></clipPath></defs></svg>