<svg width="42" height="42" viewBox="0 0 42 42" fill="none" xmlns="http://www.w3.org/2000/svg" class="hd__nav__link__icon"><g clip-path="url(#clip0_5031_21902)"><path d="M28.3656 0.0157471H13.6656C6.12694 0.0157471 0.015625 6.12706 0.015625 13.6657V28.3657C0.015625 35.9044 6.12694 42.0157 13.6656 42.0157H28.3656C35.9043 42.0157 42.0156 35.9044 42.0156 28.3657V13.6657C42.0156 6.12706 35.9043 0.0157471 28.3656 0.0157471Z" fill="#E9EAF3"></path> <path d="M21.0159 28.4183C26.5162 28.4183 30.9751 23.9593 30.9751 18.459C30.9751 12.9587 26.5162 8.49976 21.0159 8.49976C15.5155 8.49976 11.0566 12.9587 11.0566 18.459C11.0566 23.9593 15.5155 28.4183 21.0159 28.4183Z" fill="#2A3761"></path> <path d="M22.6006 19.509L27.9871 31.059C28.1289 31.3683 28.1773 31.7123 28.1265 32.0487C28.0756 32.3851 27.9277 32.6994 27.7009 32.953C27.474 33.2066 27.1781 33.3885 26.8494 33.4764C26.5207 33.5642 26.1735 33.5543 25.8504 33.4477L21.5716 32.025C21.2158 31.9042 20.8301 31.9042 20.4744 32.025L16.1904 33.453C15.8783 33.5569 15.5433 33.5705 15.2239 33.4921C14.9045 33.4136 14.6138 33.2465 14.3854 33.0098C14.157 32.7732 14.0002 32.4767 13.9331 32.1548C13.866 31.8328 13.8914 31.4984 14.0064 31.1902C14.0184 31.1445 14.036 31.1004 14.0589 31.059L19.4244 19.5037C19.5516 19.2209 19.7539 18.9783 20.0094 18.8024C20.2649 18.6265 20.5637 18.5241 20.8734 18.5062H20.9994C21.3354 18.4971 21.6666 18.5874 21.9515 18.7658C22.2363 18.9442 22.4622 19.2027 22.6006 19.509V19.509Z" fill="#F2AEC9"></path> <path d="M21.0007 28.4183C22.7916 28.4216 24.5498 27.939 26.088 27.0218L22.602 19.509C22.4635 19.2027 22.2377 18.9442 21.9528 18.7658C21.6679 18.5874 21.3367 18.4971 21.0007 18.5062H20.8957C20.5824 18.5203 20.2791 18.621 20.0196 18.7971C19.7601 18.9732 19.5545 19.2178 19.4257 19.5038L15.9082 27.0218C17.4482 27.9392 19.2082 28.4218 21.0007 28.4183V28.4183Z" fill="#FF5804"></path></g> <defs><clipPath id="clip0_5031_21902"><rect width="42" height="42" fill="white"></rect></clipPath></defs></svg>