<svg width="42" height="42" viewBox="0 0 42 42" fill="none" xmlns="http://www.w3.org/2000/svg" class="hd__nav__link__icon"><path d="M28.35 0H13.65C6.11131 0 0 6.11131 0 13.65V28.35C0 35.8887 6.11131 42 13.65 42H28.35C35.8887 42 42 35.8887 42 28.35V13.65C42 6.11131 35.8887 0 28.35 0Z" fill="#D9F4E4"></path> <path d="M25.3945 15.771H16.606C13.7181 15.771 11.377 18.1121 11.377 21V27.9457C11.377 30.8336 13.7181 33.1747 16.606 33.1747H25.3945C28.2823 33.1747 30.6235 30.8336 30.6235 27.9457V21C30.6235 18.1121 28.2823 15.771 25.3945 15.771Z" fill="#2A3761"></path> <path d="M31.7094 19.3883C24.6883 21.231 17.3105 21.231 10.2894 19.3883C8.61461 18.9578 8.00036 17.2883 9.11336 16.1595L13.1244 10.9095C13.6369 10.4241 14.319 10.1584 15.0249 10.1693H27.3834C28.0889 10.1601 28.7704 10.4256 29.2839 10.9095L32.8854 16.1595L32.9326 16.2068L33.0166 16.296C33.9459 17.409 33.3159 18.9735 31.7094 19.3883Z" fill="#35A162"></path> <path d="M11.4238 19.6665C17.7232 21.1366 24.2765 21.1366 30.5758 19.6665C30.4613 18.6067 29.965 17.6248 29.1796 16.9041C28.3942 16.1834 27.3733 15.7732 26.3076 15.75H15.6921C14.6264 15.7732 13.6055 16.1834 12.8201 16.9041C12.0346 17.6248 11.5383 18.6067 11.4238 19.6665V19.6665Z" fill="#FF9F00"></path> <path d="M24.6325 24.1395H17.3717C16.5106 24.1395 15.8125 24.8376 15.8125 25.6988C15.8125 26.5599 16.5106 27.258 17.3717 27.258H24.6325C25.4936 27.258 26.1917 26.5599 26.1917 25.6988C26.1917 24.8376 25.4936 24.1395 24.6325 24.1395Z" fill="white"></path></svg>